<svg xmlns="http://www.w3.org/2000/svg" viewBox="0 0 1200 120" width="100%">
  <defs>
    <linearGradient id="g2" x1="0" y1="0" x2="1" y2="0">
      <stop offset="0%" stop-color="#dbeafe"/>
      <stop offset="35%" stop-color="#93c5fd"/>
      <stop offset="70%" stop-color="#38bdf8"/>
      <stop offset="100%" stop-color="#22d3ee"/>
    </linearGradient>
    <filter id="blur2" x="-20%" y="-200%" width="140%" height="500%">
      <feGaussianBlur stdDeviation="7"/>
    </filter>
  </defs>
  <style>
    @keyframes drift {
      0% { transform: translateX(0px); }
      50% { transform: translateX(18px); }
      100% { transform: translateX(0px); }
    }
    .w1 { animation: drift 6s ease-in-out infinite; }
    .w2 { animation: drift 8s ease-in-out infinite reverse; opacity: 0.58; }
  </style>
  <rect width="1200" height="120" fill="#0a1525"/>
  <path class="w1" d="M0 68 C120 98 240 44 360 68 C480 92 600 40 720 68 C840 94 960 42 1080 68 C1140 80 1170 84 1200 84" stroke="url(#g2)" stroke-width="6" fill="none"/>
  <path class="w2" d="M0 82 C120 106 240 56 360 82 C480 106 600 58 720 82 C840 106 960 58 1080 82 C1140 94 1170 98 1200 98" stroke="url(#g2)" stroke-width="4" fill="none"/>
  <path d="M0 68 C120 98 240 44 360 68 C480 92 600 40 720 68 C840 94 960 42 1080 68 C1140 80 1170 84 1200 84" stroke="url(#g2)" stroke-width="12" fill="none" filter="url(#blur2)" opacity="0.45"/>
</svg>
